<mxfile host="app.diagrams.net" modified="2024-04-06T03:41:24.159Z" agent="Mozilla/5.0 (Windows NT 10.0; Win64; x64) AppleWebKit/537.36 (KHTML, like Gecko) Chrome/123.0.0.0 Safari/537.36" etag="Nnqdwa1FK74HlHpV44lS" version="24.0.7" type="github">
  <diagram id="C5RBs43oDa-KdzZeNtuy" name="Page-1">
    <mxGraphModel dx="1687" dy="918" grid="1" gridSize="10" guides="1" tooltips="1" connect="1" arrows="1" fold="1" page="1" pageScale="1" pageWidth="827" pageHeight="1169" math="0" shadow="0">
      <root>
        <mxCell id="WIyWlLk6GJQsqaUBKTNV-0" />
        <mxCell id="WIyWlLk6GJQsqaUBKTNV-1" parent="WIyWlLk6GJQsqaUBKTNV-0" />
        <mxCell id="a0YZ2yVg-nQJSaEmy1Xa-48" style="edgeStyle=orthogonalEdgeStyle;rounded=0;orthogonalLoop=1;jettySize=auto;html=1;exitX=0.5;exitY=1;exitDx=0;exitDy=0;entryX=0.5;entryY=0;entryDx=0;entryDy=0;" parent="WIyWlLk6GJQsqaUBKTNV-1" source="WIyWlLk6GJQsqaUBKTNV-3" edge="1">
          <mxGeometry relative="1" as="geometry">
            <mxPoint x="184.94" y="310" as="targetPoint" />
          </mxGeometry>
        </mxCell>
        <mxCell id="WIyWlLk6GJQsqaUBKTNV-3" value="&lt;font style=&quot;font-size: 18px;&quot;&gt;主程式開始&lt;/font&gt;&lt;div&gt;&lt;font style=&quot;font-size: 18px;&quot;&gt;(loop)&lt;/font&gt;&lt;/div&gt;" style="rounded=1;whiteSpace=wrap;html=1;fontSize=12;glass=0;strokeWidth=1;shadow=0;fillColor=#fff2cc;strokeColor=#d6b656;" parent="WIyWlLk6GJQsqaUBKTNV-1" vertex="1">
          <mxGeometry x="124.94" y="210" width="120" height="50" as="geometry" />
        </mxCell>
        <mxCell id="a0YZ2yVg-nQJSaEmy1Xa-3" value="&lt;font style=&quot;font-size: 18px;&quot;&gt;判斷是否要delay&lt;/font&gt;&lt;div&gt;&lt;font style=&quot;font-size: 18px;&quot;&gt;(按鈕是否有改變)&lt;/font&gt;&lt;/div&gt;" style="rounded=1;whiteSpace=wrap;html=1;fontSize=12;glass=0;strokeWidth=1;shadow=0;" parent="WIyWlLk6GJQsqaUBKTNV-1" vertex="1">
          <mxGeometry x="85.94" y="310" width="198" height="50" as="geometry" />
        </mxCell>
        <mxCell id="a0YZ2yVg-nQJSaEmy1Xa-4" value="&lt;font style=&quot;font-size: 18px;&quot;&gt;讀取電位計&lt;/font&gt;" style="rounded=1;whiteSpace=wrap;html=1;fontSize=12;glass=0;strokeWidth=1;shadow=0;" parent="WIyWlLk6GJQsqaUBKTNV-1" vertex="1">
          <mxGeometry x="540" y="260" width="120" height="40" as="geometry" />
        </mxCell>
        <mxCell id="a0YZ2yVg-nQJSaEmy1Xa-12" value="&lt;font style=&quot;font-size: 14px;&quot;&gt;按鈕是否有變化&lt;/font&gt;" style="rhombus;whiteSpace=wrap;html=1;" parent="WIyWlLk6GJQsqaUBKTNV-1" vertex="1">
          <mxGeometry x="545" y="350" width="110" height="80" as="geometry" />
        </mxCell>
        <mxCell id="a0YZ2yVg-nQJSaEmy1Xa-37" value="&lt;div&gt;&lt;span style=&quot;font-size: 36px;&quot;&gt;ledState&lt;/span&gt;&lt;br&gt;&lt;/div&gt;&lt;div&gt;&lt;font size=&quot;3&quot; style=&quot;&quot;&gt;讓燈泡處於的狀態&lt;/font&gt;&lt;/div&gt;&lt;div&gt;&lt;br&gt;&lt;/div&gt;" style="rounded=0;whiteSpace=wrap;html=1;" parent="WIyWlLk6GJQsqaUBKTNV-1" vertex="1">
          <mxGeometry x="30" y="60" width="180" height="60" as="geometry" />
        </mxCell>
        <mxCell id="a0YZ2yVg-nQJSaEmy1Xa-38" value="" style="endArrow=classic;html=1;rounded=0;exitX=1;exitY=0.5;exitDx=0;exitDy=0;" parent="WIyWlLk6GJQsqaUBKTNV-1" source="a0YZ2yVg-nQJSaEmy1Xa-37" edge="1">
          <mxGeometry width="50" height="50" relative="1" as="geometry">
            <mxPoint x="230" y="90" as="sourcePoint" />
            <mxPoint x="260" y="50" as="targetPoint" />
          </mxGeometry>
        </mxCell>
        <mxCell id="a0YZ2yVg-nQJSaEmy1Xa-39" value="" style="endArrow=classic;html=1;rounded=0;exitX=1;exitY=0.5;exitDx=0;exitDy=0;" parent="WIyWlLk6GJQsqaUBKTNV-1" source="a0YZ2yVg-nQJSaEmy1Xa-37" edge="1">
          <mxGeometry width="50" height="50" relative="1" as="geometry">
            <mxPoint x="450" y="130" as="sourcePoint" />
            <mxPoint x="260" y="130" as="targetPoint" />
          </mxGeometry>
        </mxCell>
        <mxCell id="a0YZ2yVg-nQJSaEmy1Xa-40" style="edgeStyle=orthogonalEdgeStyle;rounded=0;orthogonalLoop=1;jettySize=auto;html=1;exitX=1;exitY=0.5;exitDx=0;exitDy=0;entryX=0;entryY=0.5;entryDx=0;entryDy=0;" parent="WIyWlLk6GJQsqaUBKTNV-1" source="a0YZ2yVg-nQJSaEmy1Xa-41" target="a0YZ2yVg-nQJSaEmy1Xa-44" edge="1">
          <mxGeometry relative="1" as="geometry" />
        </mxCell>
        <mxCell id="a0YZ2yVg-nQJSaEmy1Xa-41" value="&lt;font style=&quot;font-size: 18px;&quot;&gt;1&lt;/font&gt;" style="rounded=0;whiteSpace=wrap;html=1;" parent="WIyWlLk6GJQsqaUBKTNV-1" vertex="1">
          <mxGeometry x="260" y="30" width="50" height="40" as="geometry" />
        </mxCell>
        <mxCell id="a0YZ2yVg-nQJSaEmy1Xa-42" style="edgeStyle=orthogonalEdgeStyle;rounded=0;orthogonalLoop=1;jettySize=auto;html=1;exitX=1;exitY=0.5;exitDx=0;exitDy=0;entryX=0;entryY=0.5;entryDx=0;entryDy=0;" parent="WIyWlLk6GJQsqaUBKTNV-1" source="a0YZ2yVg-nQJSaEmy1Xa-43" target="a0YZ2yVg-nQJSaEmy1Xa-45" edge="1">
          <mxGeometry relative="1" as="geometry" />
        </mxCell>
        <mxCell id="a0YZ2yVg-nQJSaEmy1Xa-43" value="&lt;font style=&quot;font-size: 18px;&quot;&gt;0&lt;/font&gt;" style="rounded=0;whiteSpace=wrap;html=1;" parent="WIyWlLk6GJQsqaUBKTNV-1" vertex="1">
          <mxGeometry x="260" y="110" width="50" height="40" as="geometry" />
        </mxCell>
        <mxCell id="a0YZ2yVg-nQJSaEmy1Xa-44" value="&lt;font style=&quot;font-size: 18px;&quot;&gt;持續閃爍&lt;/font&gt;" style="rounded=0;whiteSpace=wrap;html=1;" parent="WIyWlLk6GJQsqaUBKTNV-1" vertex="1">
          <mxGeometry x="380" y="30" width="50" height="40" as="geometry" />
        </mxCell>
        <mxCell id="a0YZ2yVg-nQJSaEmy1Xa-45" value="&lt;font style=&quot;font-size: 18px;&quot;&gt;停止閃爍&lt;/font&gt;" style="rounded=0;whiteSpace=wrap;html=1;" parent="WIyWlLk6GJQsqaUBKTNV-1" vertex="1">
          <mxGeometry x="380" y="110" width="50" height="40" as="geometry" />
        </mxCell>
        <mxCell id="a0YZ2yVg-nQJSaEmy1Xa-52" style="edgeStyle=orthogonalEdgeStyle;rounded=0;orthogonalLoop=1;jettySize=auto;html=1;exitX=0.5;exitY=1;exitDx=0;exitDy=0;" parent="WIyWlLk6GJQsqaUBKTNV-1" source="a0YZ2yVg-nQJSaEmy1Xa-46" edge="1">
          <mxGeometry relative="1" as="geometry">
            <mxPoint x="185.35176470588232" y="520" as="targetPoint" />
          </mxGeometry>
        </mxCell>
        <mxCell id="a0YZ2yVg-nQJSaEmy1Xa-46" value="&lt;font style=&quot;font-size: 18px;&quot;&gt;&lt;span style=&quot;color: rgb(0, 0, 0); font-family: Helvetica; font-style: normal; font-variant-ligatures: normal; font-variant-caps: normal; font-weight: 400; letter-spacing: normal; orphans: 2; text-align: center; text-indent: 0px; text-transform: none; widows: 2; word-spacing: 0px; -webkit-text-stroke-width: 0px; white-space: normal; background-color: rgb(251, 251, 251); text-decoration-thickness: initial; text-decoration-style: initial; text-decoration-color: initial; float: none; display: inline !important;&quot;&gt;ledState&lt;/span&gt;&lt;br&gt;&lt;/font&gt;" style="rhombus;whiteSpace=wrap;html=1;" parent="WIyWlLk6GJQsqaUBKTNV-1" vertex="1">
          <mxGeometry x="139.94" y="390" width="90" height="80" as="geometry" />
        </mxCell>
        <mxCell id="a0YZ2yVg-nQJSaEmy1Xa-47" value="" style="endArrow=classic;html=1;rounded=0;exitX=0.5;exitY=1;exitDx=0;exitDy=0;entryX=0.5;entryY=0;entryDx=0;entryDy=0;" parent="WIyWlLk6GJQsqaUBKTNV-1" target="a0YZ2yVg-nQJSaEmy1Xa-46" edge="1">
          <mxGeometry width="50" height="50" relative="1" as="geometry">
            <mxPoint x="184.94" y="360" as="sourcePoint" />
            <mxPoint x="293.94" y="400" as="targetPoint" />
          </mxGeometry>
        </mxCell>
        <mxCell id="a0YZ2yVg-nQJSaEmy1Xa-49" value="" style="endArrow=classic;html=1;rounded=0;exitX=1;exitY=0.5;exitDx=0;exitDy=0;entryX=0;entryY=0.5;entryDx=0;entryDy=0;" parent="WIyWlLk6GJQsqaUBKTNV-1" source="a0YZ2yVg-nQJSaEmy1Xa-46" target="a0YZ2yVg-nQJSaEmy1Xa-55" edge="1">
          <mxGeometry width="50" height="50" relative="1" as="geometry">
            <mxPoint x="290" y="380" as="sourcePoint" />
            <mxPoint x="250" y="430" as="targetPoint" />
          </mxGeometry>
        </mxCell>
        <mxCell id="a0YZ2yVg-nQJSaEmy1Xa-51" value="&lt;font style=&quot;font-size: 18px;&quot;&gt;0&lt;/font&gt;" style="rounded=0;whiteSpace=wrap;html=1;" parent="WIyWlLk6GJQsqaUBKTNV-1" vertex="1">
          <mxGeometry x="310" y="410" width="21" height="20" as="geometry" />
        </mxCell>
        <mxCell id="a0YZ2yVg-nQJSaEmy1Xa-53" value="&lt;font style=&quot;font-size: 18px;&quot;&gt;1&lt;/font&gt;" style="rounded=0;whiteSpace=wrap;html=1;" parent="WIyWlLk6GJQsqaUBKTNV-1" vertex="1">
          <mxGeometry x="183.94" y="480" width="21" height="20" as="geometry" />
        </mxCell>
        <mxCell id="a0YZ2yVg-nQJSaEmy1Xa-58" style="edgeStyle=orthogonalEdgeStyle;rounded=0;orthogonalLoop=1;jettySize=auto;html=1;exitX=0.5;exitY=0;exitDx=0;exitDy=0;entryX=0.5;entryY=0;entryDx=0;entryDy=0;" parent="WIyWlLk6GJQsqaUBKTNV-1" source="a0YZ2yVg-nQJSaEmy1Xa-55" target="WIyWlLk6GJQsqaUBKTNV-3" edge="1">
          <mxGeometry relative="1" as="geometry">
            <mxPoint x="270" y="180" as="targetPoint" />
          </mxGeometry>
        </mxCell>
        <mxCell id="a0YZ2yVg-nQJSaEmy1Xa-55" value="&lt;span style=&quot;font-size: 18px;&quot;&gt;停止閃爍&lt;/span&gt;" style="rounded=1;whiteSpace=wrap;html=1;fontSize=12;glass=0;strokeWidth=1;shadow=0;" parent="WIyWlLk6GJQsqaUBKTNV-1" vertex="1">
          <mxGeometry x="344" y="412.5" width="82" height="35" as="geometry" />
        </mxCell>
        <mxCell id="a0YZ2yVg-nQJSaEmy1Xa-59" value="&lt;span style=&quot;font-size: 18px;&quot;&gt;亂數選位置&lt;/span&gt;" style="rounded=1;whiteSpace=wrap;html=1;fontSize=12;glass=0;strokeWidth=1;shadow=0;" parent="WIyWlLk6GJQsqaUBKTNV-1" vertex="1">
          <mxGeometry x="129.94" y="520" width="110" height="50" as="geometry" />
        </mxCell>
        <mxCell id="2lL0q1fl7zp5h_5ITqnk-2" style="edgeStyle=orthogonalEdgeStyle;rounded=0;orthogonalLoop=1;jettySize=auto;html=1;exitX=0.5;exitY=1;exitDx=0;exitDy=0;" edge="1" parent="WIyWlLk6GJQsqaUBKTNV-1" source="2lL0q1fl7zp5h_5ITqnk-3">
          <mxGeometry relative="1" as="geometry">
            <mxPoint x="185.35176470588232" y="730" as="targetPoint" />
          </mxGeometry>
        </mxCell>
        <mxCell id="2lL0q1fl7zp5h_5ITqnk-3" value="&lt;font style=&quot;font-size: 18px;&quot;&gt;&lt;span style=&quot;color: rgb(0, 0, 0); font-family: Helvetica; font-style: normal; font-variant-ligatures: normal; font-variant-caps: normal; font-weight: 400; letter-spacing: normal; orphans: 2; text-align: center; text-indent: 0px; text-transform: none; widows: 2; word-spacing: 0px; -webkit-text-stroke-width: 0px; white-space: normal; background-color: rgb(251, 251, 251); text-decoration-thickness: initial; text-decoration-style: initial; text-decoration-color: initial; float: none; display: inline !important;&quot;&gt;ledState&lt;/span&gt;&lt;br&gt;&lt;/font&gt;" style="rhombus;whiteSpace=wrap;html=1;" vertex="1" parent="WIyWlLk6GJQsqaUBKTNV-1">
          <mxGeometry x="139.94" y="600" width="90" height="80" as="geometry" />
        </mxCell>
        <mxCell id="2lL0q1fl7zp5h_5ITqnk-4" value="" style="endArrow=classic;html=1;rounded=0;exitX=0.5;exitY=1;exitDx=0;exitDy=0;entryX=0.5;entryY=0;entryDx=0;entryDy=0;" edge="1" parent="WIyWlLk6GJQsqaUBKTNV-1" target="2lL0q1fl7zp5h_5ITqnk-3">
          <mxGeometry width="50" height="50" relative="1" as="geometry">
            <mxPoint x="184.94" y="570" as="sourcePoint" />
            <mxPoint x="293.94" y="610" as="targetPoint" />
          </mxGeometry>
        </mxCell>
        <mxCell id="2lL0q1fl7zp5h_5ITqnk-5" value="" style="endArrow=classic;html=1;rounded=0;exitX=1;exitY=0.5;exitDx=0;exitDy=0;entryX=0;entryY=0.5;entryDx=0;entryDy=0;" edge="1" parent="WIyWlLk6GJQsqaUBKTNV-1" source="2lL0q1fl7zp5h_5ITqnk-3" target="2lL0q1fl7zp5h_5ITqnk-8">
          <mxGeometry width="50" height="50" relative="1" as="geometry">
            <mxPoint x="290" y="590" as="sourcePoint" />
            <mxPoint x="250" y="640" as="targetPoint" />
          </mxGeometry>
        </mxCell>
        <mxCell id="2lL0q1fl7zp5h_5ITqnk-6" value="&lt;font style=&quot;font-size: 18px;&quot;&gt;0&lt;/font&gt;" style="rounded=0;whiteSpace=wrap;html=1;" vertex="1" parent="WIyWlLk6GJQsqaUBKTNV-1">
          <mxGeometry x="310" y="620" width="21" height="20" as="geometry" />
        </mxCell>
        <mxCell id="2lL0q1fl7zp5h_5ITqnk-7" value="&lt;font style=&quot;font-size: 18px;&quot;&gt;1&lt;/font&gt;" style="rounded=0;whiteSpace=wrap;html=1;" vertex="1" parent="WIyWlLk6GJQsqaUBKTNV-1">
          <mxGeometry x="183.94" y="690" width="21" height="20" as="geometry" />
        </mxCell>
        <mxCell id="2lL0q1fl7zp5h_5ITqnk-10" style="edgeStyle=orthogonalEdgeStyle;rounded=0;orthogonalLoop=1;jettySize=auto;html=1;exitX=0.5;exitY=0;exitDx=0;exitDy=0;entryX=0.5;entryY=1;entryDx=0;entryDy=0;" edge="1" parent="WIyWlLk6GJQsqaUBKTNV-1" source="2lL0q1fl7zp5h_5ITqnk-8" target="a0YZ2yVg-nQJSaEmy1Xa-55">
          <mxGeometry relative="1" as="geometry" />
        </mxCell>
        <mxCell id="2lL0q1fl7zp5h_5ITqnk-8" value="&lt;span style=&quot;font-size: 18px;&quot;&gt;停止閃爍&lt;/span&gt;" style="rounded=1;whiteSpace=wrap;html=1;fontSize=12;glass=0;strokeWidth=1;shadow=0;" vertex="1" parent="WIyWlLk6GJQsqaUBKTNV-1">
          <mxGeometry x="344" y="622.5" width="82" height="35" as="geometry" />
        </mxCell>
        <mxCell id="2lL0q1fl7zp5h_5ITqnk-30" style="edgeStyle=orthogonalEdgeStyle;rounded=0;orthogonalLoop=1;jettySize=auto;html=1;exitX=0.5;exitY=1;exitDx=0;exitDy=0;entryX=0.5;entryY=0;entryDx=0;entryDy=0;" edge="1" parent="WIyWlLk6GJQsqaUBKTNV-1" source="2lL0q1fl7zp5h_5ITqnk-9" target="2lL0q1fl7zp5h_5ITqnk-20">
          <mxGeometry relative="1" as="geometry" />
        </mxCell>
        <mxCell id="2lL0q1fl7zp5h_5ITqnk-9" value="&lt;span style=&quot;font-size: 18px;&quot;&gt;燈亮起&lt;/span&gt;" style="rounded=1;whiteSpace=wrap;html=1;fontSize=12;glass=0;strokeWidth=1;shadow=0;" vertex="1" parent="WIyWlLk6GJQsqaUBKTNV-1">
          <mxGeometry x="129.94" y="730" width="110" height="50" as="geometry" />
        </mxCell>
        <mxCell id="2lL0q1fl7zp5h_5ITqnk-20" value="&lt;span style=&quot;font-size: 18px;&quot;&gt;delay&lt;/span&gt;" style="rounded=1;whiteSpace=wrap;html=1;fontSize=12;glass=0;strokeWidth=1;shadow=0;" vertex="1" parent="WIyWlLk6GJQsqaUBKTNV-1">
          <mxGeometry x="129.94" y="830" width="110" height="50" as="geometry" />
        </mxCell>
        <mxCell id="2lL0q1fl7zp5h_5ITqnk-21" style="edgeStyle=orthogonalEdgeStyle;rounded=0;orthogonalLoop=1;jettySize=auto;html=1;exitX=0.5;exitY=1;exitDx=0;exitDy=0;" edge="1" parent="WIyWlLk6GJQsqaUBKTNV-1" source="2lL0q1fl7zp5h_5ITqnk-22">
          <mxGeometry relative="1" as="geometry">
            <mxPoint x="185.35176470588232" y="1040" as="targetPoint" />
          </mxGeometry>
        </mxCell>
        <mxCell id="2lL0q1fl7zp5h_5ITqnk-22" value="&lt;font style=&quot;font-size: 18px;&quot;&gt;&lt;span style=&quot;color: rgb(0, 0, 0); font-family: Helvetica; font-style: normal; font-variant-ligatures: normal; font-variant-caps: normal; font-weight: 400; letter-spacing: normal; orphans: 2; text-align: center; text-indent: 0px; text-transform: none; widows: 2; word-spacing: 0px; -webkit-text-stroke-width: 0px; white-space: normal; background-color: rgb(251, 251, 251); text-decoration-thickness: initial; text-decoration-style: initial; text-decoration-color: initial; float: none; display: inline !important;&quot;&gt;ledState&lt;/span&gt;&lt;br&gt;&lt;/font&gt;" style="rhombus;whiteSpace=wrap;html=1;" vertex="1" parent="WIyWlLk6GJQsqaUBKTNV-1">
          <mxGeometry x="139.94" y="910" width="90" height="80" as="geometry" />
        </mxCell>
        <mxCell id="2lL0q1fl7zp5h_5ITqnk-23" value="" style="endArrow=classic;html=1;rounded=0;exitX=0.5;exitY=1;exitDx=0;exitDy=0;entryX=0.5;entryY=0;entryDx=0;entryDy=0;" edge="1" parent="WIyWlLk6GJQsqaUBKTNV-1" target="2lL0q1fl7zp5h_5ITqnk-22">
          <mxGeometry width="50" height="50" relative="1" as="geometry">
            <mxPoint x="184.94" y="880" as="sourcePoint" />
            <mxPoint x="293.94" y="920" as="targetPoint" />
          </mxGeometry>
        </mxCell>
        <mxCell id="2lL0q1fl7zp5h_5ITqnk-24" value="" style="endArrow=classic;html=1;rounded=0;exitX=1;exitY=0.5;exitDx=0;exitDy=0;entryX=0;entryY=0.5;entryDx=0;entryDy=0;" edge="1" parent="WIyWlLk6GJQsqaUBKTNV-1" source="2lL0q1fl7zp5h_5ITqnk-22" target="2lL0q1fl7zp5h_5ITqnk-28">
          <mxGeometry width="50" height="50" relative="1" as="geometry">
            <mxPoint x="290" y="900" as="sourcePoint" />
            <mxPoint x="250" y="950" as="targetPoint" />
          </mxGeometry>
        </mxCell>
        <mxCell id="2lL0q1fl7zp5h_5ITqnk-25" value="&lt;font style=&quot;font-size: 18px;&quot;&gt;0&lt;/font&gt;" style="rounded=0;whiteSpace=wrap;html=1;" vertex="1" parent="WIyWlLk6GJQsqaUBKTNV-1">
          <mxGeometry x="310" y="930" width="21" height="20" as="geometry" />
        </mxCell>
        <mxCell id="2lL0q1fl7zp5h_5ITqnk-26" value="&lt;font style=&quot;font-size: 18px;&quot;&gt;1&lt;/font&gt;" style="rounded=0;whiteSpace=wrap;html=1;" vertex="1" parent="WIyWlLk6GJQsqaUBKTNV-1">
          <mxGeometry x="183.94" y="1000" width="21" height="20" as="geometry" />
        </mxCell>
        <mxCell id="2lL0q1fl7zp5h_5ITqnk-27" style="edgeStyle=orthogonalEdgeStyle;rounded=0;orthogonalLoop=1;jettySize=auto;html=1;exitX=0.5;exitY=0;exitDx=0;exitDy=0;entryX=0.5;entryY=1;entryDx=0;entryDy=0;" edge="1" parent="WIyWlLk6GJQsqaUBKTNV-1" source="2lL0q1fl7zp5h_5ITqnk-28" target="2lL0q1fl7zp5h_5ITqnk-8">
          <mxGeometry relative="1" as="geometry">
            <mxPoint x="395" y="770" as="targetPoint" />
          </mxGeometry>
        </mxCell>
        <mxCell id="2lL0q1fl7zp5h_5ITqnk-28" value="&lt;span style=&quot;font-size: 18px;&quot;&gt;停止閃爍&lt;/span&gt;" style="rounded=1;whiteSpace=wrap;html=1;fontSize=12;glass=0;strokeWidth=1;shadow=0;" vertex="1" parent="WIyWlLk6GJQsqaUBKTNV-1">
          <mxGeometry x="344" y="932.5" width="82" height="35" as="geometry" />
        </mxCell>
        <mxCell id="2lL0q1fl7zp5h_5ITqnk-31" style="edgeStyle=orthogonalEdgeStyle;rounded=0;orthogonalLoop=1;jettySize=auto;html=1;exitX=0;exitY=0.5;exitDx=0;exitDy=0;entryX=0;entryY=0.5;entryDx=0;entryDy=0;" edge="1" parent="WIyWlLk6GJQsqaUBKTNV-1" source="2lL0q1fl7zp5h_5ITqnk-29" target="a0YZ2yVg-nQJSaEmy1Xa-46">
          <mxGeometry relative="1" as="geometry">
            <mxPoint x="95.00000000000028" y="1075" as="sourcePoint" />
            <mxPoint x="50.000000000000284" y="415" as="targetPoint" />
            <Array as="points">
              <mxPoint x="50" y="1065" />
              <mxPoint x="50" y="430" />
            </Array>
          </mxGeometry>
        </mxCell>
        <mxCell id="2lL0q1fl7zp5h_5ITqnk-29" value="&lt;span style=&quot;font-size: 18px;&quot;&gt;燈滅掉&lt;/span&gt;" style="rounded=1;whiteSpace=wrap;html=1;fontSize=12;glass=0;strokeWidth=1;shadow=0;" vertex="1" parent="WIyWlLk6GJQsqaUBKTNV-1">
          <mxGeometry x="129.94" y="1040" width="110" height="50" as="geometry" />
        </mxCell>
      </root>
    </mxGraphModel>
  </diagram>
</mxfile>
